<mxfile host="Electron" agent="Mozilla/5.0 (Windows NT 10.0; Win64; x64) AppleWebKit/537.36 (KHTML, like Gecko) draw.io/27.0.9 Chrome/134.0.6998.205 Electron/35.4.0 Safari/537.36" version="27.0.9">
  <diagram name="Page-1" id="cWpbHqfjLMJJOGrjuPAY">
    <mxGraphModel dx="1426" dy="849" grid="1" gridSize="10" guides="1" tooltips="1" connect="1" arrows="1" fold="1" page="1" pageScale="1" pageWidth="850" pageHeight="1100" math="0" shadow="0">
      <root>
        <mxCell id="0" />
        <mxCell id="1" parent="0" />
        <mxCell id="A_T5-0spEJ6hVYVWhzJw-1" value="&lt;font style=&quot;font-size: 20px;&quot;&gt;&lt;b style=&quot;&quot;&gt;Data&amp;nbsp;Mart &lt;br&gt;(Star Schema)&lt;/b&gt;&lt;/font&gt;&lt;div&gt;&lt;font style=&quot;font-size: 16px;&quot;&gt;&lt;b&gt;&lt;br&gt;&lt;/b&gt;&lt;/font&gt;&lt;/div&gt;" style="text;html=1;align=center;verticalAlign=middle;resizable=0;points=[];autosize=1;strokeColor=none;fillColor=none;" vertex="1" parent="1">
          <mxGeometry x="40" y="20" width="160" height="80" as="geometry" />
        </mxCell>
        <mxCell id="A_T5-0spEJ6hVYVWhzJw-3" value="gold.dim_customers" style="shape=table;startSize=30;container=1;collapsible=1;childLayout=tableLayout;fixedRows=1;rowLines=0;fontStyle=1;align=center;resizeLast=1;html=1;fillColor=#fff2cc;strokeColor=#d6b656;rounded=1;fontSize=16;swimlaneFillColor=none;swimlaneLine=0;" vertex="1" parent="1">
          <mxGeometry x="70" y="130" width="200" height="576" as="geometry">
            <mxRectangle x="60" y="140" width="180" height="30" as="alternateBounds" />
          </mxGeometry>
        </mxCell>
        <mxCell id="A_T5-0spEJ6hVYVWhzJw-4" value="" style="shape=tableRow;horizontal=0;startSize=0;swimlaneHead=0;swimlaneBody=0;fillColor=none;collapsible=0;dropTarget=0;points=[[0,0.5],[1,0.5]];portConstraint=eastwest;top=0;left=0;right=0;bottom=1;fontSize=16;" vertex="1" parent="A_T5-0spEJ6hVYVWhzJw-3">
          <mxGeometry y="30" width="200" height="40" as="geometry" />
        </mxCell>
        <mxCell id="A_T5-0spEJ6hVYVWhzJw-5" value="PK" style="shape=partialRectangle;connectable=0;fillColor=none;top=0;left=0;bottom=0;right=0;fontStyle=1;overflow=hidden;whiteSpace=wrap;html=1;fontSize=16;" vertex="1" parent="A_T5-0spEJ6hVYVWhzJw-4">
          <mxGeometry width="30" height="40" as="geometry">
            <mxRectangle width="30" height="40" as="alternateBounds" />
          </mxGeometry>
        </mxCell>
        <mxCell id="A_T5-0spEJ6hVYVWhzJw-6" value="customer_key" style="shape=partialRectangle;connectable=0;fillColor=none;top=0;left=0;bottom=0;right=0;align=left;spacingLeft=6;fontStyle=5;overflow=hidden;whiteSpace=wrap;html=1;fontSize=16;" vertex="1" parent="A_T5-0spEJ6hVYVWhzJw-4">
          <mxGeometry x="30" width="170" height="40" as="geometry">
            <mxRectangle width="170" height="40" as="alternateBounds" />
          </mxGeometry>
        </mxCell>
        <mxCell id="A_T5-0spEJ6hVYVWhzJw-7" value="" style="shape=tableRow;horizontal=0;startSize=0;swimlaneHead=0;swimlaneBody=0;fillColor=none;collapsible=0;dropTarget=0;points=[[0,0.5],[1,0.5]];portConstraint=eastwest;top=0;left=0;right=0;bottom=0;fontSize=16;" vertex="1" parent="A_T5-0spEJ6hVYVWhzJw-3">
          <mxGeometry y="70" width="200" height="57" as="geometry" />
        </mxCell>
        <mxCell id="A_T5-0spEJ6hVYVWhzJw-8" value="" style="shape=partialRectangle;connectable=0;fillColor=none;top=0;left=0;bottom=0;right=0;editable=1;overflow=hidden;whiteSpace=wrap;html=1;fontSize=16;" vertex="1" parent="A_T5-0spEJ6hVYVWhzJw-7">
          <mxGeometry width="30" height="57" as="geometry">
            <mxRectangle width="30" height="57" as="alternateBounds" />
          </mxGeometry>
        </mxCell>
        <mxCell id="A_T5-0spEJ6hVYVWhzJw-9" value="customer_id&lt;span style=&quot;white-space: pre;&quot;&gt;&#x9;&lt;/span&gt;" style="shape=partialRectangle;connectable=0;fillColor=none;top=0;left=0;bottom=0;right=0;align=left;spacingLeft=6;overflow=hidden;whiteSpace=wrap;html=1;fontSize=16;fontStyle=1" vertex="1" parent="A_T5-0spEJ6hVYVWhzJw-7">
          <mxGeometry x="30" width="170" height="57" as="geometry">
            <mxRectangle width="170" height="57" as="alternateBounds" />
          </mxGeometry>
        </mxCell>
        <mxCell id="A_T5-0spEJ6hVYVWhzJw-10" value="" style="shape=tableRow;horizontal=0;startSize=0;swimlaneHead=0;swimlaneBody=0;fillColor=none;collapsible=0;dropTarget=0;points=[[0,0.5],[1,0.5]];portConstraint=eastwest;top=0;left=0;right=0;bottom=0;fontSize=16;" vertex="1" parent="A_T5-0spEJ6hVYVWhzJw-3">
          <mxGeometry y="127" width="200" height="57" as="geometry" />
        </mxCell>
        <mxCell id="A_T5-0spEJ6hVYVWhzJw-11" value="" style="shape=partialRectangle;connectable=0;fillColor=none;top=0;left=0;bottom=0;right=0;editable=1;overflow=hidden;whiteSpace=wrap;html=1;fontSize=16;" vertex="1" parent="A_T5-0spEJ6hVYVWhzJw-10">
          <mxGeometry width="30" height="57" as="geometry">
            <mxRectangle width="30" height="57" as="alternateBounds" />
          </mxGeometry>
        </mxCell>
        <mxCell id="A_T5-0spEJ6hVYVWhzJw-12" value="customer_number" style="shape=partialRectangle;connectable=0;fillColor=none;top=0;left=0;bottom=0;right=0;align=left;spacingLeft=6;overflow=hidden;whiteSpace=wrap;html=1;fontSize=16;fontStyle=1" vertex="1" parent="A_T5-0spEJ6hVYVWhzJw-10">
          <mxGeometry x="30" width="170" height="57" as="geometry">
            <mxRectangle width="170" height="57" as="alternateBounds" />
          </mxGeometry>
        </mxCell>
        <mxCell id="A_T5-0spEJ6hVYVWhzJw-46" value="" style="shape=tableRow;horizontal=0;startSize=0;swimlaneHead=0;swimlaneBody=0;fillColor=none;collapsible=0;dropTarget=0;points=[[0,0.5],[1,0.5]];portConstraint=eastwest;top=0;left=0;right=0;bottom=0;fontSize=16;" vertex="1" parent="A_T5-0spEJ6hVYVWhzJw-3">
          <mxGeometry y="184" width="200" height="56" as="geometry" />
        </mxCell>
        <mxCell id="A_T5-0spEJ6hVYVWhzJw-47" value="" style="shape=partialRectangle;connectable=0;fillColor=none;top=0;left=0;bottom=0;right=0;editable=1;overflow=hidden;whiteSpace=wrap;html=1;fontSize=16;" vertex="1" parent="A_T5-0spEJ6hVYVWhzJw-46">
          <mxGeometry width="30" height="56" as="geometry">
            <mxRectangle width="30" height="56" as="alternateBounds" />
          </mxGeometry>
        </mxCell>
        <mxCell id="A_T5-0spEJ6hVYVWhzJw-48" value="first_name&amp;nbsp;" style="shape=partialRectangle;connectable=0;fillColor=none;top=0;left=0;bottom=0;right=0;align=left;spacingLeft=6;overflow=hidden;whiteSpace=wrap;html=1;fontSize=16;fontStyle=1" vertex="1" parent="A_T5-0spEJ6hVYVWhzJw-46">
          <mxGeometry x="30" width="170" height="56" as="geometry">
            <mxRectangle width="170" height="56" as="alternateBounds" />
          </mxGeometry>
        </mxCell>
        <mxCell id="A_T5-0spEJ6hVYVWhzJw-50" value="" style="shape=tableRow;horizontal=0;startSize=0;swimlaneHead=0;swimlaneBody=0;fillColor=none;collapsible=0;dropTarget=0;points=[[0,0.5],[1,0.5]];portConstraint=eastwest;top=0;left=0;right=0;bottom=0;fontSize=16;" vertex="1" parent="A_T5-0spEJ6hVYVWhzJw-3">
          <mxGeometry y="240" width="200" height="56" as="geometry" />
        </mxCell>
        <mxCell id="A_T5-0spEJ6hVYVWhzJw-51" value="" style="shape=partialRectangle;connectable=0;fillColor=none;top=0;left=0;bottom=0;right=0;editable=1;overflow=hidden;whiteSpace=wrap;html=1;fontSize=16;" vertex="1" parent="A_T5-0spEJ6hVYVWhzJw-50">
          <mxGeometry width="30" height="56" as="geometry">
            <mxRectangle width="30" height="56" as="alternateBounds" />
          </mxGeometry>
        </mxCell>
        <mxCell id="A_T5-0spEJ6hVYVWhzJw-52" value="last_name&lt;span style=&quot;white-space: pre;&quot;&gt;&#x9;&lt;/span&gt;" style="shape=partialRectangle;connectable=0;fillColor=none;top=0;left=0;bottom=0;right=0;align=left;spacingLeft=6;overflow=hidden;whiteSpace=wrap;html=1;fontSize=16;fontStyle=1" vertex="1" parent="A_T5-0spEJ6hVYVWhzJw-50">
          <mxGeometry x="30" width="170" height="56" as="geometry">
            <mxRectangle width="170" height="56" as="alternateBounds" />
          </mxGeometry>
        </mxCell>
        <mxCell id="A_T5-0spEJ6hVYVWhzJw-53" value="" style="shape=tableRow;horizontal=0;startSize=0;swimlaneHead=0;swimlaneBody=0;fillColor=none;collapsible=0;dropTarget=0;points=[[0,0.5],[1,0.5]];portConstraint=eastwest;top=0;left=0;right=0;bottom=0;fontSize=16;" vertex="1" parent="A_T5-0spEJ6hVYVWhzJw-3">
          <mxGeometry y="296" width="200" height="56" as="geometry" />
        </mxCell>
        <mxCell id="A_T5-0spEJ6hVYVWhzJw-54" value="" style="shape=partialRectangle;connectable=0;fillColor=none;top=0;left=0;bottom=0;right=0;editable=1;overflow=hidden;whiteSpace=wrap;html=1;fontSize=16;" vertex="1" parent="A_T5-0spEJ6hVYVWhzJw-53">
          <mxGeometry width="30" height="56" as="geometry">
            <mxRectangle width="30" height="56" as="alternateBounds" />
          </mxGeometry>
        </mxCell>
        <mxCell id="A_T5-0spEJ6hVYVWhzJw-55" value="country" style="shape=partialRectangle;connectable=0;fillColor=none;top=0;left=0;bottom=0;right=0;align=left;spacingLeft=6;overflow=hidden;whiteSpace=wrap;html=1;fontSize=16;fontStyle=1" vertex="1" parent="A_T5-0spEJ6hVYVWhzJw-53">
          <mxGeometry x="30" width="170" height="56" as="geometry">
            <mxRectangle width="170" height="56" as="alternateBounds" />
          </mxGeometry>
        </mxCell>
        <mxCell id="A_T5-0spEJ6hVYVWhzJw-13" value="" style="shape=tableRow;horizontal=0;startSize=0;swimlaneHead=0;swimlaneBody=0;fillColor=none;collapsible=0;dropTarget=0;points=[[0,0.5],[1,0.5]];portConstraint=eastwest;top=0;left=0;right=0;bottom=0;fontSize=16;" vertex="1" parent="A_T5-0spEJ6hVYVWhzJw-3">
          <mxGeometry y="352" width="200" height="56" as="geometry" />
        </mxCell>
        <mxCell id="A_T5-0spEJ6hVYVWhzJw-14" value="" style="shape=partialRectangle;connectable=0;fillColor=none;top=0;left=0;bottom=0;right=0;editable=1;overflow=hidden;whiteSpace=wrap;html=1;fontSize=16;" vertex="1" parent="A_T5-0spEJ6hVYVWhzJw-13">
          <mxGeometry width="30" height="56" as="geometry">
            <mxRectangle width="30" height="56" as="alternateBounds" />
          </mxGeometry>
        </mxCell>
        <mxCell id="A_T5-0spEJ6hVYVWhzJw-15" value="marital_status" style="shape=partialRectangle;connectable=0;fillColor=none;top=0;left=0;bottom=0;right=0;align=left;spacingLeft=6;overflow=hidden;whiteSpace=wrap;html=1;fontSize=16;fontStyle=1" vertex="1" parent="A_T5-0spEJ6hVYVWhzJw-13">
          <mxGeometry x="30" width="170" height="56" as="geometry">
            <mxRectangle width="170" height="56" as="alternateBounds" />
          </mxGeometry>
        </mxCell>
        <mxCell id="A_T5-0spEJ6hVYVWhzJw-56" value="" style="shape=tableRow;horizontal=0;startSize=0;swimlaneHead=0;swimlaneBody=0;fillColor=none;collapsible=0;dropTarget=0;points=[[0,0.5],[1,0.5]];portConstraint=eastwest;top=0;left=0;right=0;bottom=0;fontSize=16;" vertex="1" parent="A_T5-0spEJ6hVYVWhzJw-3">
          <mxGeometry y="408" width="200" height="56" as="geometry" />
        </mxCell>
        <mxCell id="A_T5-0spEJ6hVYVWhzJw-57" value="" style="shape=partialRectangle;connectable=0;fillColor=none;top=0;left=0;bottom=0;right=0;editable=1;overflow=hidden;whiteSpace=wrap;html=1;fontSize=16;" vertex="1" parent="A_T5-0spEJ6hVYVWhzJw-56">
          <mxGeometry width="30" height="56" as="geometry">
            <mxRectangle width="30" height="56" as="alternateBounds" />
          </mxGeometry>
        </mxCell>
        <mxCell id="A_T5-0spEJ6hVYVWhzJw-58" value="gender" style="shape=partialRectangle;connectable=0;fillColor=none;top=0;left=0;bottom=0;right=0;align=left;spacingLeft=6;overflow=hidden;whiteSpace=wrap;html=1;fontSize=16;fontStyle=1" vertex="1" parent="A_T5-0spEJ6hVYVWhzJw-56">
          <mxGeometry x="30" width="170" height="56" as="geometry">
            <mxRectangle width="170" height="56" as="alternateBounds" />
          </mxGeometry>
        </mxCell>
        <mxCell id="A_T5-0spEJ6hVYVWhzJw-59" value="" style="shape=tableRow;horizontal=0;startSize=0;swimlaneHead=0;swimlaneBody=0;fillColor=none;collapsible=0;dropTarget=0;points=[[0,0.5],[1,0.5]];portConstraint=eastwest;top=0;left=0;right=0;bottom=0;fontSize=16;" vertex="1" parent="A_T5-0spEJ6hVYVWhzJw-3">
          <mxGeometry y="464" width="200" height="56" as="geometry" />
        </mxCell>
        <mxCell id="A_T5-0spEJ6hVYVWhzJw-60" value="" style="shape=partialRectangle;connectable=0;fillColor=none;top=0;left=0;bottom=0;right=0;editable=1;overflow=hidden;whiteSpace=wrap;html=1;fontSize=16;" vertex="1" parent="A_T5-0spEJ6hVYVWhzJw-59">
          <mxGeometry width="30" height="56" as="geometry">
            <mxRectangle width="30" height="56" as="alternateBounds" />
          </mxGeometry>
        </mxCell>
        <mxCell id="A_T5-0spEJ6hVYVWhzJw-61" value="birthdate" style="shape=partialRectangle;connectable=0;fillColor=none;top=0;left=0;bottom=0;right=0;align=left;spacingLeft=6;overflow=hidden;whiteSpace=wrap;html=1;fontSize=16;fontStyle=1" vertex="1" parent="A_T5-0spEJ6hVYVWhzJw-59">
          <mxGeometry x="30" width="170" height="56" as="geometry">
            <mxRectangle width="170" height="56" as="alternateBounds" />
          </mxGeometry>
        </mxCell>
        <mxCell id="A_T5-0spEJ6hVYVWhzJw-62" value="" style="shape=tableRow;horizontal=0;startSize=0;swimlaneHead=0;swimlaneBody=0;fillColor=none;collapsible=0;dropTarget=0;points=[[0,0.5],[1,0.5]];portConstraint=eastwest;top=0;left=0;right=0;bottom=0;fontSize=16;" vertex="1" parent="A_T5-0spEJ6hVYVWhzJw-3">
          <mxGeometry y="520" width="200" height="56" as="geometry" />
        </mxCell>
        <mxCell id="A_T5-0spEJ6hVYVWhzJw-63" value="" style="shape=partialRectangle;connectable=0;fillColor=none;top=0;left=0;bottom=0;right=0;editable=1;overflow=hidden;whiteSpace=wrap;html=1;fontSize=16;" vertex="1" parent="A_T5-0spEJ6hVYVWhzJw-62">
          <mxGeometry width="30" height="56" as="geometry">
            <mxRectangle width="30" height="56" as="alternateBounds" />
          </mxGeometry>
        </mxCell>
        <mxCell id="A_T5-0spEJ6hVYVWhzJw-64" value="country" style="shape=partialRectangle;connectable=0;fillColor=none;top=0;left=0;bottom=0;right=0;align=left;spacingLeft=6;overflow=hidden;whiteSpace=wrap;html=1;fontSize=16;fontStyle=1" vertex="1" parent="A_T5-0spEJ6hVYVWhzJw-62">
          <mxGeometry x="30" width="170" height="56" as="geometry">
            <mxRectangle width="170" height="56" as="alternateBounds" />
          </mxGeometry>
        </mxCell>
        <mxCell id="A_T5-0spEJ6hVYVWhzJw-20" value="gold.dim_products" style="shape=table;startSize=30;container=1;collapsible=1;childLayout=tableLayout;fixedRows=1;rowLines=0;fontStyle=1;align=center;resizeLast=1;html=1;fillColor=#fff2cc;strokeColor=#d6b656;rounded=1;fontSize=16;swimlaneFillColor=none;swimlaneLine=0;arcSize=16;" vertex="1" parent="1">
          <mxGeometry x="600" y="120" width="200" height="640" as="geometry">
            <mxRectangle x="60" y="140" width="180" height="30" as="alternateBounds" />
          </mxGeometry>
        </mxCell>
        <mxCell id="A_T5-0spEJ6hVYVWhzJw-21" value="" style="shape=tableRow;horizontal=0;startSize=0;swimlaneHead=0;swimlaneBody=0;fillColor=none;collapsible=0;dropTarget=0;points=[[0,0.5],[1,0.5]];portConstraint=eastwest;top=0;left=0;right=0;bottom=1;fontSize=16;" vertex="1" parent="A_T5-0spEJ6hVYVWhzJw-20">
          <mxGeometry y="30" width="200" height="40" as="geometry" />
        </mxCell>
        <mxCell id="A_T5-0spEJ6hVYVWhzJw-22" value="PK" style="shape=partialRectangle;connectable=0;fillColor=none;top=0;left=0;bottom=0;right=0;fontStyle=1;overflow=hidden;whiteSpace=wrap;html=1;fontSize=16;" vertex="1" parent="A_T5-0spEJ6hVYVWhzJw-21">
          <mxGeometry width="30" height="40" as="geometry">
            <mxRectangle width="30" height="40" as="alternateBounds" />
          </mxGeometry>
        </mxCell>
        <mxCell id="A_T5-0spEJ6hVYVWhzJw-23" value="product_key" style="shape=partialRectangle;connectable=0;fillColor=none;top=0;left=0;bottom=0;right=0;align=left;spacingLeft=6;fontStyle=5;overflow=hidden;whiteSpace=wrap;html=1;fontSize=16;" vertex="1" parent="A_T5-0spEJ6hVYVWhzJw-21">
          <mxGeometry x="30" width="170" height="40" as="geometry">
            <mxRectangle width="170" height="40" as="alternateBounds" />
          </mxGeometry>
        </mxCell>
        <mxCell id="A_T5-0spEJ6hVYVWhzJw-24" value="" style="shape=tableRow;horizontal=0;startSize=0;swimlaneHead=0;swimlaneBody=0;fillColor=none;collapsible=0;dropTarget=0;points=[[0,0.5],[1,0.5]];portConstraint=eastwest;top=0;left=0;right=0;bottom=0;fontSize=16;" vertex="1" parent="A_T5-0spEJ6hVYVWhzJw-20">
          <mxGeometry y="70" width="200" height="57" as="geometry" />
        </mxCell>
        <mxCell id="A_T5-0spEJ6hVYVWhzJw-25" value="" style="shape=partialRectangle;connectable=0;fillColor=none;top=0;left=0;bottom=0;right=0;editable=1;overflow=hidden;whiteSpace=wrap;html=1;fontSize=16;" vertex="1" parent="A_T5-0spEJ6hVYVWhzJw-24">
          <mxGeometry width="30" height="57" as="geometry">
            <mxRectangle width="30" height="57" as="alternateBounds" />
          </mxGeometry>
        </mxCell>
        <mxCell id="A_T5-0spEJ6hVYVWhzJw-26" value="product_id" style="shape=partialRectangle;connectable=0;fillColor=none;top=0;left=0;bottom=0;right=0;align=left;spacingLeft=6;overflow=hidden;whiteSpace=wrap;html=1;fontSize=16;fontStyle=1" vertex="1" parent="A_T5-0spEJ6hVYVWhzJw-24">
          <mxGeometry x="30" width="170" height="57" as="geometry">
            <mxRectangle width="170" height="57" as="alternateBounds" />
          </mxGeometry>
        </mxCell>
        <mxCell id="A_T5-0spEJ6hVYVWhzJw-27" value="" style="shape=tableRow;horizontal=0;startSize=0;swimlaneHead=0;swimlaneBody=0;fillColor=none;collapsible=0;dropTarget=0;points=[[0,0.5],[1,0.5]];portConstraint=eastwest;top=0;left=0;right=0;bottom=0;fontSize=16;" vertex="1" parent="A_T5-0spEJ6hVYVWhzJw-20">
          <mxGeometry y="127" width="200" height="57" as="geometry" />
        </mxCell>
        <mxCell id="A_T5-0spEJ6hVYVWhzJw-28" value="" style="shape=partialRectangle;connectable=0;fillColor=none;top=0;left=0;bottom=0;right=0;editable=1;overflow=hidden;whiteSpace=wrap;html=1;fontSize=16;" vertex="1" parent="A_T5-0spEJ6hVYVWhzJw-27">
          <mxGeometry width="30" height="57" as="geometry">
            <mxRectangle width="30" height="57" as="alternateBounds" />
          </mxGeometry>
        </mxCell>
        <mxCell id="A_T5-0spEJ6hVYVWhzJw-29" value="product_number" style="shape=partialRectangle;connectable=0;fillColor=none;top=0;left=0;bottom=0;right=0;align=left;spacingLeft=6;overflow=hidden;whiteSpace=wrap;html=1;fontSize=16;fontStyle=1" vertex="1" parent="A_T5-0spEJ6hVYVWhzJw-27">
          <mxGeometry x="30" width="170" height="57" as="geometry">
            <mxRectangle width="170" height="57" as="alternateBounds" />
          </mxGeometry>
        </mxCell>
        <mxCell id="A_T5-0spEJ6hVYVWhzJw-109" value="" style="shape=tableRow;horizontal=0;startSize=0;swimlaneHead=0;swimlaneBody=0;fillColor=none;collapsible=0;dropTarget=0;points=[[0,0.5],[1,0.5]];portConstraint=eastwest;top=0;left=0;right=0;bottom=0;fontSize=16;" vertex="1" parent="A_T5-0spEJ6hVYVWhzJw-20">
          <mxGeometry y="184" width="200" height="57" as="geometry" />
        </mxCell>
        <mxCell id="A_T5-0spEJ6hVYVWhzJw-110" value="" style="shape=partialRectangle;connectable=0;fillColor=none;top=0;left=0;bottom=0;right=0;editable=1;overflow=hidden;whiteSpace=wrap;html=1;fontSize=16;" vertex="1" parent="A_T5-0spEJ6hVYVWhzJw-109">
          <mxGeometry width="30" height="57" as="geometry">
            <mxRectangle width="30" height="57" as="alternateBounds" />
          </mxGeometry>
        </mxCell>
        <mxCell id="A_T5-0spEJ6hVYVWhzJw-111" value="product_name" style="shape=partialRectangle;connectable=0;fillColor=none;top=0;left=0;bottom=0;right=0;align=left;spacingLeft=6;overflow=hidden;whiteSpace=wrap;html=1;fontSize=16;fontStyle=1" vertex="1" parent="A_T5-0spEJ6hVYVWhzJw-109">
          <mxGeometry x="30" width="170" height="57" as="geometry">
            <mxRectangle width="170" height="57" as="alternateBounds" />
          </mxGeometry>
        </mxCell>
        <mxCell id="A_T5-0spEJ6hVYVWhzJw-112" value="" style="shape=tableRow;horizontal=0;startSize=0;swimlaneHead=0;swimlaneBody=0;fillColor=none;collapsible=0;dropTarget=0;points=[[0,0.5],[1,0.5]];portConstraint=eastwest;top=0;left=0;right=0;bottom=0;fontSize=16;" vertex="1" parent="A_T5-0spEJ6hVYVWhzJw-20">
          <mxGeometry y="241" width="200" height="57" as="geometry" />
        </mxCell>
        <mxCell id="A_T5-0spEJ6hVYVWhzJw-113" value="" style="shape=partialRectangle;connectable=0;fillColor=none;top=0;left=0;bottom=0;right=0;editable=1;overflow=hidden;whiteSpace=wrap;html=1;fontSize=16;" vertex="1" parent="A_T5-0spEJ6hVYVWhzJw-112">
          <mxGeometry width="30" height="57" as="geometry">
            <mxRectangle width="30" height="57" as="alternateBounds" />
          </mxGeometry>
        </mxCell>
        <mxCell id="A_T5-0spEJ6hVYVWhzJw-114" value="category_id" style="shape=partialRectangle;connectable=0;fillColor=none;top=0;left=0;bottom=0;right=0;align=left;spacingLeft=6;overflow=hidden;whiteSpace=wrap;html=1;fontSize=16;fontStyle=1" vertex="1" parent="A_T5-0spEJ6hVYVWhzJw-112">
          <mxGeometry x="30" width="170" height="57" as="geometry">
            <mxRectangle width="170" height="57" as="alternateBounds" />
          </mxGeometry>
        </mxCell>
        <mxCell id="A_T5-0spEJ6hVYVWhzJw-115" value="" style="shape=tableRow;horizontal=0;startSize=0;swimlaneHead=0;swimlaneBody=0;fillColor=none;collapsible=0;dropTarget=0;points=[[0,0.5],[1,0.5]];portConstraint=eastwest;top=0;left=0;right=0;bottom=0;fontSize=16;" vertex="1" parent="A_T5-0spEJ6hVYVWhzJw-20">
          <mxGeometry y="298" width="200" height="57" as="geometry" />
        </mxCell>
        <mxCell id="A_T5-0spEJ6hVYVWhzJw-116" value="" style="shape=partialRectangle;connectable=0;fillColor=none;top=0;left=0;bottom=0;right=0;editable=1;overflow=hidden;whiteSpace=wrap;html=1;fontSize=16;" vertex="1" parent="A_T5-0spEJ6hVYVWhzJw-115">
          <mxGeometry width="30" height="57" as="geometry">
            <mxRectangle width="30" height="57" as="alternateBounds" />
          </mxGeometry>
        </mxCell>
        <mxCell id="A_T5-0spEJ6hVYVWhzJw-117" value="category" style="shape=partialRectangle;connectable=0;fillColor=none;top=0;left=0;bottom=0;right=0;align=left;spacingLeft=6;overflow=hidden;whiteSpace=wrap;html=1;fontSize=16;fontStyle=1" vertex="1" parent="A_T5-0spEJ6hVYVWhzJw-115">
          <mxGeometry x="30" width="170" height="57" as="geometry">
            <mxRectangle width="170" height="57" as="alternateBounds" />
          </mxGeometry>
        </mxCell>
        <mxCell id="A_T5-0spEJ6hVYVWhzJw-118" value="" style="shape=tableRow;horizontal=0;startSize=0;swimlaneHead=0;swimlaneBody=0;fillColor=none;collapsible=0;dropTarget=0;points=[[0,0.5],[1,0.5]];portConstraint=eastwest;top=0;left=0;right=0;bottom=0;fontSize=16;" vertex="1" parent="A_T5-0spEJ6hVYVWhzJw-20">
          <mxGeometry y="355" width="200" height="57" as="geometry" />
        </mxCell>
        <mxCell id="A_T5-0spEJ6hVYVWhzJw-119" value="" style="shape=partialRectangle;connectable=0;fillColor=none;top=0;left=0;bottom=0;right=0;editable=1;overflow=hidden;whiteSpace=wrap;html=1;fontSize=16;" vertex="1" parent="A_T5-0spEJ6hVYVWhzJw-118">
          <mxGeometry width="30" height="57" as="geometry">
            <mxRectangle width="30" height="57" as="alternateBounds" />
          </mxGeometry>
        </mxCell>
        <mxCell id="A_T5-0spEJ6hVYVWhzJw-120" value="subcategory" style="shape=partialRectangle;connectable=0;fillColor=none;top=0;left=0;bottom=0;right=0;align=left;spacingLeft=6;overflow=hidden;whiteSpace=wrap;html=1;fontSize=16;fontStyle=1" vertex="1" parent="A_T5-0spEJ6hVYVWhzJw-118">
          <mxGeometry x="30" width="170" height="57" as="geometry">
            <mxRectangle width="170" height="57" as="alternateBounds" />
          </mxGeometry>
        </mxCell>
        <mxCell id="A_T5-0spEJ6hVYVWhzJw-121" value="" style="shape=tableRow;horizontal=0;startSize=0;swimlaneHead=0;swimlaneBody=0;fillColor=none;collapsible=0;dropTarget=0;points=[[0,0.5],[1,0.5]];portConstraint=eastwest;top=0;left=0;right=0;bottom=0;fontSize=16;" vertex="1" parent="A_T5-0spEJ6hVYVWhzJw-20">
          <mxGeometry y="412" width="200" height="57" as="geometry" />
        </mxCell>
        <mxCell id="A_T5-0spEJ6hVYVWhzJw-122" value="" style="shape=partialRectangle;connectable=0;fillColor=none;top=0;left=0;bottom=0;right=0;editable=1;overflow=hidden;whiteSpace=wrap;html=1;fontSize=16;" vertex="1" parent="A_T5-0spEJ6hVYVWhzJw-121">
          <mxGeometry width="30" height="57" as="geometry">
            <mxRectangle width="30" height="57" as="alternateBounds" />
          </mxGeometry>
        </mxCell>
        <mxCell id="A_T5-0spEJ6hVYVWhzJw-123" value="maintenance" style="shape=partialRectangle;connectable=0;fillColor=none;top=0;left=0;bottom=0;right=0;align=left;spacingLeft=6;overflow=hidden;whiteSpace=wrap;html=1;fontSize=16;fontStyle=1" vertex="1" parent="A_T5-0spEJ6hVYVWhzJw-121">
          <mxGeometry x="30" width="170" height="57" as="geometry">
            <mxRectangle width="170" height="57" as="alternateBounds" />
          </mxGeometry>
        </mxCell>
        <mxCell id="A_T5-0spEJ6hVYVWhzJw-124" value="" style="shape=tableRow;horizontal=0;startSize=0;swimlaneHead=0;swimlaneBody=0;fillColor=none;collapsible=0;dropTarget=0;points=[[0,0.5],[1,0.5]];portConstraint=eastwest;top=0;left=0;right=0;bottom=0;fontSize=16;" vertex="1" parent="A_T5-0spEJ6hVYVWhzJw-20">
          <mxGeometry y="469" width="200" height="57" as="geometry" />
        </mxCell>
        <mxCell id="A_T5-0spEJ6hVYVWhzJw-125" value="" style="shape=partialRectangle;connectable=0;fillColor=none;top=0;left=0;bottom=0;right=0;editable=1;overflow=hidden;whiteSpace=wrap;html=1;fontSize=16;" vertex="1" parent="A_T5-0spEJ6hVYVWhzJw-124">
          <mxGeometry width="30" height="57" as="geometry">
            <mxRectangle width="30" height="57" as="alternateBounds" />
          </mxGeometry>
        </mxCell>
        <mxCell id="A_T5-0spEJ6hVYVWhzJw-126" value="cost" style="shape=partialRectangle;connectable=0;fillColor=none;top=0;left=0;bottom=0;right=0;align=left;spacingLeft=6;overflow=hidden;whiteSpace=wrap;html=1;fontSize=16;fontStyle=1" vertex="1" parent="A_T5-0spEJ6hVYVWhzJw-124">
          <mxGeometry x="30" width="170" height="57" as="geometry">
            <mxRectangle width="170" height="57" as="alternateBounds" />
          </mxGeometry>
        </mxCell>
        <mxCell id="A_T5-0spEJ6hVYVWhzJw-127" value="" style="shape=tableRow;horizontal=0;startSize=0;swimlaneHead=0;swimlaneBody=0;fillColor=none;collapsible=0;dropTarget=0;points=[[0,0.5],[1,0.5]];portConstraint=eastwest;top=0;left=0;right=0;bottom=0;fontSize=16;" vertex="1" parent="A_T5-0spEJ6hVYVWhzJw-20">
          <mxGeometry y="526" width="200" height="57" as="geometry" />
        </mxCell>
        <mxCell id="A_T5-0spEJ6hVYVWhzJw-128" value="" style="shape=partialRectangle;connectable=0;fillColor=none;top=0;left=0;bottom=0;right=0;editable=1;overflow=hidden;whiteSpace=wrap;html=1;fontSize=16;" vertex="1" parent="A_T5-0spEJ6hVYVWhzJw-127">
          <mxGeometry width="30" height="57" as="geometry">
            <mxRectangle width="30" height="57" as="alternateBounds" />
          </mxGeometry>
        </mxCell>
        <mxCell id="A_T5-0spEJ6hVYVWhzJw-129" value="product_line" style="shape=partialRectangle;connectable=0;fillColor=none;top=0;left=0;bottom=0;right=0;align=left;spacingLeft=6;overflow=hidden;whiteSpace=wrap;html=1;fontSize=16;fontStyle=1" vertex="1" parent="A_T5-0spEJ6hVYVWhzJw-127">
          <mxGeometry x="30" width="170" height="57" as="geometry">
            <mxRectangle width="170" height="57" as="alternateBounds" />
          </mxGeometry>
        </mxCell>
        <mxCell id="A_T5-0spEJ6hVYVWhzJw-30" value="" style="shape=tableRow;horizontal=0;startSize=0;swimlaneHead=0;swimlaneBody=0;fillColor=none;collapsible=0;dropTarget=0;points=[[0,0.5],[1,0.5]];portConstraint=eastwest;top=0;left=0;right=0;bottom=0;fontSize=16;" vertex="1" parent="A_T5-0spEJ6hVYVWhzJw-20">
          <mxGeometry y="583" width="200" height="57" as="geometry" />
        </mxCell>
        <mxCell id="A_T5-0spEJ6hVYVWhzJw-31" value="" style="shape=partialRectangle;connectable=0;fillColor=none;top=0;left=0;bottom=0;right=0;editable=1;overflow=hidden;whiteSpace=wrap;html=1;fontSize=16;" vertex="1" parent="A_T5-0spEJ6hVYVWhzJw-30">
          <mxGeometry width="30" height="57" as="geometry">
            <mxRectangle width="30" height="57" as="alternateBounds" />
          </mxGeometry>
        </mxCell>
        <mxCell id="A_T5-0spEJ6hVYVWhzJw-32" value="start_date" style="shape=partialRectangle;connectable=0;fillColor=none;top=0;left=0;bottom=0;right=0;align=left;spacingLeft=6;overflow=hidden;whiteSpace=wrap;html=1;fontSize=16;fontStyle=1" vertex="1" parent="A_T5-0spEJ6hVYVWhzJw-30">
          <mxGeometry x="30" width="170" height="57" as="geometry">
            <mxRectangle width="170" height="57" as="alternateBounds" />
          </mxGeometry>
        </mxCell>
        <mxCell id="A_T5-0spEJ6hVYVWhzJw-146" value="" style="edgeStyle=entityRelationEdgeStyle;fontSize=12;html=1;endArrow=ERzeroToMany;startArrow=ERmandOne;rounded=0;exitX=1;exitY=0.5;exitDx=0;exitDy=0;" edge="1" parent="1" source="A_T5-0spEJ6hVYVWhzJw-4" target="A_T5-0spEJ6hVYVWhzJw-152">
          <mxGeometry width="100" height="100" relative="1" as="geometry">
            <mxPoint x="380" y="470" as="sourcePoint" />
            <mxPoint x="430" y="265.5" as="targetPoint" />
            <Array as="points">
              <mxPoint x="280" y="240" />
              <mxPoint x="370" y="330" />
            </Array>
          </mxGeometry>
        </mxCell>
        <mxCell id="A_T5-0spEJ6hVYVWhzJw-147" value="" style="edgeStyle=entityRelationEdgeStyle;fontSize=12;html=1;endArrow=ERzeroToMany;startArrow=ERmandOne;rounded=0;exitX=1;exitY=0.5;exitDx=0;exitDy=0;entryX=0;entryY=0.5;entryDx=0;entryDy=0;" edge="1" parent="1" source="A_T5-0spEJ6hVYVWhzJw-187" target="A_T5-0spEJ6hVYVWhzJw-24">
          <mxGeometry width="100" height="100" relative="1" as="geometry">
            <mxPoint x="540" y="330" as="sourcePoint" />
            <mxPoint x="640" y="230" as="targetPoint" />
          </mxGeometry>
        </mxCell>
        <mxCell id="A_T5-0spEJ6hVYVWhzJw-148" value="gold.dim_sales" style="shape=table;startSize=30;container=1;collapsible=0;childLayout=tableLayout;fixedRows=1;rowLines=0;fontStyle=1;strokeColor=#314354;fontSize=16;fillColor=#647687;fontColor=#ffffff;rounded=1;" vertex="1" parent="1">
          <mxGeometry x="350" y="140" width="180" height="270" as="geometry" />
        </mxCell>
        <mxCell id="A_T5-0spEJ6hVYVWhzJw-149" value="" style="shape=tableRow;horizontal=0;startSize=0;swimlaneHead=0;swimlaneBody=0;top=0;left=0;bottom=0;right=0;collapsible=0;dropTarget=0;fillColor=none;points=[[0,0.5],[1,0.5]];portConstraint=eastwest;strokeColor=inherit;fontSize=16;" vertex="1" parent="A_T5-0spEJ6hVYVWhzJw-148">
          <mxGeometry y="30" width="180" height="30" as="geometry" />
        </mxCell>
        <mxCell id="A_T5-0spEJ6hVYVWhzJw-150" value="" style="shape=partialRectangle;html=1;whiteSpace=wrap;connectable=0;fillColor=none;top=0;left=0;bottom=0;right=0;overflow=hidden;pointerEvents=1;strokeColor=inherit;fontSize=16;" vertex="1" parent="A_T5-0spEJ6hVYVWhzJw-149">
          <mxGeometry width="40" height="30" as="geometry">
            <mxRectangle width="40" height="30" as="alternateBounds" />
          </mxGeometry>
        </mxCell>
        <mxCell id="A_T5-0spEJ6hVYVWhzJw-151" value="order_number" style="shape=partialRectangle;html=1;whiteSpace=wrap;connectable=0;fillColor=none;top=0;left=0;bottom=0;right=0;align=left;spacingLeft=6;overflow=hidden;strokeColor=inherit;fontSize=16;fontStyle=1" vertex="1" parent="A_T5-0spEJ6hVYVWhzJw-149">
          <mxGeometry x="40" width="140" height="30" as="geometry">
            <mxRectangle width="140" height="30" as="alternateBounds" />
          </mxGeometry>
        </mxCell>
        <mxCell id="A_T5-0spEJ6hVYVWhzJw-152" value="" style="shape=tableRow;horizontal=0;startSize=0;swimlaneHead=0;swimlaneBody=0;top=0;left=0;bottom=0;right=0;collapsible=0;dropTarget=0;fillColor=none;points=[[0,0.5],[1,0.5]];portConstraint=eastwest;strokeColor=inherit;fontSize=16;" vertex="1" parent="A_T5-0spEJ6hVYVWhzJw-148">
          <mxGeometry y="60" width="180" height="30" as="geometry" />
        </mxCell>
        <mxCell id="A_T5-0spEJ6hVYVWhzJw-153" value="FK1" style="shape=partialRectangle;html=1;whiteSpace=wrap;connectable=0;fillColor=none;top=0;left=0;bottom=0;right=0;overflow=hidden;strokeColor=inherit;fontSize=16;" vertex="1" parent="A_T5-0spEJ6hVYVWhzJw-152">
          <mxGeometry width="40" height="30" as="geometry">
            <mxRectangle width="40" height="30" as="alternateBounds" />
          </mxGeometry>
        </mxCell>
        <mxCell id="A_T5-0spEJ6hVYVWhzJw-154" value="customer_key" style="shape=partialRectangle;html=1;whiteSpace=wrap;connectable=0;fillColor=none;top=0;left=0;bottom=0;right=0;align=left;spacingLeft=6;overflow=hidden;strokeColor=inherit;fontSize=16;fontStyle=1" vertex="1" parent="A_T5-0spEJ6hVYVWhzJw-152">
          <mxGeometry x="40" width="140" height="30" as="geometry">
            <mxRectangle width="140" height="30" as="alternateBounds" />
          </mxGeometry>
        </mxCell>
        <mxCell id="A_T5-0spEJ6hVYVWhzJw-187" value="" style="shape=tableRow;horizontal=0;startSize=0;swimlaneHead=0;swimlaneBody=0;top=0;left=0;bottom=0;right=0;collapsible=0;dropTarget=0;fillColor=none;points=[[0,0.5],[1,0.5]];portConstraint=eastwest;strokeColor=inherit;fontSize=16;" vertex="1" parent="A_T5-0spEJ6hVYVWhzJw-148">
          <mxGeometry y="90" width="180" height="30" as="geometry" />
        </mxCell>
        <mxCell id="A_T5-0spEJ6hVYVWhzJw-188" value="FK2" style="shape=partialRectangle;html=1;whiteSpace=wrap;connectable=0;fillColor=none;top=0;left=0;bottom=0;right=0;overflow=hidden;strokeColor=inherit;fontSize=16;" vertex="1" parent="A_T5-0spEJ6hVYVWhzJw-187">
          <mxGeometry width="40" height="30" as="geometry">
            <mxRectangle width="40" height="30" as="alternateBounds" />
          </mxGeometry>
        </mxCell>
        <mxCell id="A_T5-0spEJ6hVYVWhzJw-189" value="order_date" style="shape=partialRectangle;html=1;whiteSpace=wrap;connectable=0;fillColor=none;top=0;left=0;bottom=0;right=0;align=left;spacingLeft=6;overflow=hidden;strokeColor=inherit;fontSize=16;fontStyle=1" vertex="1" parent="A_T5-0spEJ6hVYVWhzJw-187">
          <mxGeometry x="40" width="140" height="30" as="geometry">
            <mxRectangle width="140" height="30" as="alternateBounds" />
          </mxGeometry>
        </mxCell>
        <mxCell id="A_T5-0spEJ6hVYVWhzJw-190" value="" style="shape=tableRow;horizontal=0;startSize=0;swimlaneHead=0;swimlaneBody=0;top=0;left=0;bottom=0;right=0;collapsible=0;dropTarget=0;fillColor=none;points=[[0,0.5],[1,0.5]];portConstraint=eastwest;strokeColor=inherit;fontSize=16;" vertex="1" parent="A_T5-0spEJ6hVYVWhzJw-148">
          <mxGeometry y="120" width="180" height="30" as="geometry" />
        </mxCell>
        <mxCell id="A_T5-0spEJ6hVYVWhzJw-191" value="" style="shape=partialRectangle;html=1;whiteSpace=wrap;connectable=0;fillColor=none;top=0;left=0;bottom=0;right=0;overflow=hidden;strokeColor=inherit;fontSize=16;" vertex="1" parent="A_T5-0spEJ6hVYVWhzJw-190">
          <mxGeometry width="40" height="30" as="geometry">
            <mxRectangle width="40" height="30" as="alternateBounds" />
          </mxGeometry>
        </mxCell>
        <mxCell id="A_T5-0spEJ6hVYVWhzJw-192" value="shipping_date" style="shape=partialRectangle;html=1;whiteSpace=wrap;connectable=0;fillColor=none;top=0;left=0;bottom=0;right=0;align=left;spacingLeft=6;overflow=hidden;strokeColor=inherit;fontSize=16;fontStyle=1" vertex="1" parent="A_T5-0spEJ6hVYVWhzJw-190">
          <mxGeometry x="40" width="140" height="30" as="geometry">
            <mxRectangle width="140" height="30" as="alternateBounds" />
          </mxGeometry>
        </mxCell>
        <mxCell id="A_T5-0spEJ6hVYVWhzJw-196" value="" style="shape=tableRow;horizontal=0;startSize=0;swimlaneHead=0;swimlaneBody=0;top=0;left=0;bottom=0;right=0;collapsible=0;dropTarget=0;fillColor=none;points=[[0,0.5],[1,0.5]];portConstraint=eastwest;strokeColor=inherit;fontSize=16;" vertex="1" parent="A_T5-0spEJ6hVYVWhzJw-148">
          <mxGeometry y="150" width="180" height="30" as="geometry" />
        </mxCell>
        <mxCell id="A_T5-0spEJ6hVYVWhzJw-197" value="" style="shape=partialRectangle;html=1;whiteSpace=wrap;connectable=0;fillColor=none;top=0;left=0;bottom=0;right=0;overflow=hidden;strokeColor=inherit;fontSize=16;" vertex="1" parent="A_T5-0spEJ6hVYVWhzJw-196">
          <mxGeometry width="40" height="30" as="geometry">
            <mxRectangle width="40" height="30" as="alternateBounds" />
          </mxGeometry>
        </mxCell>
        <mxCell id="A_T5-0spEJ6hVYVWhzJw-198" value="due_date" style="shape=partialRectangle;html=1;whiteSpace=wrap;connectable=0;fillColor=none;top=0;left=0;bottom=0;right=0;align=left;spacingLeft=6;overflow=hidden;strokeColor=inherit;fontSize=16;fontStyle=1" vertex="1" parent="A_T5-0spEJ6hVYVWhzJw-196">
          <mxGeometry x="40" width="140" height="30" as="geometry">
            <mxRectangle width="140" height="30" as="alternateBounds" />
          </mxGeometry>
        </mxCell>
        <mxCell id="A_T5-0spEJ6hVYVWhzJw-155" value="" style="shape=tableRow;horizontal=0;startSize=0;swimlaneHead=0;swimlaneBody=0;top=0;left=0;bottom=0;right=0;collapsible=0;dropTarget=0;fillColor=none;points=[[0,0.5],[1,0.5]];portConstraint=eastwest;strokeColor=inherit;fontSize=16;" vertex="1" parent="A_T5-0spEJ6hVYVWhzJw-148">
          <mxGeometry y="180" width="180" height="30" as="geometry" />
        </mxCell>
        <mxCell id="A_T5-0spEJ6hVYVWhzJw-156" value="" style="shape=partialRectangle;html=1;whiteSpace=wrap;connectable=0;fillColor=none;top=0;left=0;bottom=0;right=0;overflow=hidden;strokeColor=inherit;fontSize=16;" vertex="1" parent="A_T5-0spEJ6hVYVWhzJw-155">
          <mxGeometry width="40" height="30" as="geometry">
            <mxRectangle width="40" height="30" as="alternateBounds" />
          </mxGeometry>
        </mxCell>
        <mxCell id="A_T5-0spEJ6hVYVWhzJw-157" value="sales_amount" style="shape=partialRectangle;html=1;whiteSpace=wrap;connectable=0;fillColor=none;top=0;left=0;bottom=0;right=0;align=left;spacingLeft=6;overflow=hidden;strokeColor=inherit;fontSize=16;fontStyle=1" vertex="1" parent="A_T5-0spEJ6hVYVWhzJw-155">
          <mxGeometry x="40" width="140" height="30" as="geometry">
            <mxRectangle width="140" height="30" as="alternateBounds" />
          </mxGeometry>
        </mxCell>
        <mxCell id="A_T5-0spEJ6hVYVWhzJw-199" value="" style="shape=tableRow;horizontal=0;startSize=0;swimlaneHead=0;swimlaneBody=0;top=0;left=0;bottom=0;right=0;collapsible=0;dropTarget=0;fillColor=none;points=[[0,0.5],[1,0.5]];portConstraint=eastwest;strokeColor=inherit;fontSize=16;" vertex="1" parent="A_T5-0spEJ6hVYVWhzJw-148">
          <mxGeometry y="210" width="180" height="30" as="geometry" />
        </mxCell>
        <mxCell id="A_T5-0spEJ6hVYVWhzJw-200" value="" style="shape=partialRectangle;html=1;whiteSpace=wrap;connectable=0;fillColor=none;top=0;left=0;bottom=0;right=0;overflow=hidden;strokeColor=inherit;fontSize=16;" vertex="1" parent="A_T5-0spEJ6hVYVWhzJw-199">
          <mxGeometry width="40" height="30" as="geometry">
            <mxRectangle width="40" height="30" as="alternateBounds" />
          </mxGeometry>
        </mxCell>
        <mxCell id="A_T5-0spEJ6hVYVWhzJw-201" value="quanitity" style="shape=partialRectangle;html=1;whiteSpace=wrap;connectable=0;fillColor=none;top=0;left=0;bottom=0;right=0;align=left;spacingLeft=6;overflow=hidden;strokeColor=inherit;fontSize=16;fontStyle=1" vertex="1" parent="A_T5-0spEJ6hVYVWhzJw-199">
          <mxGeometry x="40" width="140" height="30" as="geometry">
            <mxRectangle width="140" height="30" as="alternateBounds" />
          </mxGeometry>
        </mxCell>
        <mxCell id="A_T5-0spEJ6hVYVWhzJw-202" value="" style="shape=tableRow;horizontal=0;startSize=0;swimlaneHead=0;swimlaneBody=0;top=0;left=0;bottom=0;right=0;collapsible=0;dropTarget=0;fillColor=none;points=[[0,0.5],[1,0.5]];portConstraint=eastwest;strokeColor=inherit;fontSize=16;" vertex="1" parent="A_T5-0spEJ6hVYVWhzJw-148">
          <mxGeometry y="240" width="180" height="30" as="geometry" />
        </mxCell>
        <mxCell id="A_T5-0spEJ6hVYVWhzJw-203" value="" style="shape=partialRectangle;html=1;whiteSpace=wrap;connectable=0;fillColor=none;top=0;left=0;bottom=0;right=0;overflow=hidden;strokeColor=inherit;fontSize=16;" vertex="1" parent="A_T5-0spEJ6hVYVWhzJw-202">
          <mxGeometry width="40" height="30" as="geometry">
            <mxRectangle width="40" height="30" as="alternateBounds" />
          </mxGeometry>
        </mxCell>
        <mxCell id="A_T5-0spEJ6hVYVWhzJw-204" value="price" style="shape=partialRectangle;html=1;whiteSpace=wrap;connectable=0;fillColor=none;top=0;left=0;bottom=0;right=0;align=left;spacingLeft=6;overflow=hidden;strokeColor=inherit;fontSize=16;fontStyle=1" vertex="1" parent="A_T5-0spEJ6hVYVWhzJw-202">
          <mxGeometry x="40" width="140" height="30" as="geometry">
            <mxRectangle width="140" height="30" as="alternateBounds" />
          </mxGeometry>
        </mxCell>
        <mxCell id="A_T5-0spEJ6hVYVWhzJw-207" style="edgeStyle=orthogonalEdgeStyle;rounded=0;orthogonalLoop=1;jettySize=auto;html=1;" edge="1" parent="1" source="A_T5-0spEJ6hVYVWhzJw-206" target="A_T5-0spEJ6hVYVWhzJw-155">
          <mxGeometry relative="1" as="geometry">
            <Array as="points">
              <mxPoint x="440" y="480" />
              <mxPoint x="550" y="480" />
              <mxPoint x="550" y="335" />
            </Array>
          </mxGeometry>
        </mxCell>
        <mxCell id="A_T5-0spEJ6hVYVWhzJw-206" value="&lt;h1 style=&quot;margin-top: 0px;&quot;&gt;&lt;font style=&quot;font-size: 13px;&quot;&gt;Sales Calculation&lt;/font&gt;&lt;/h1&gt;&lt;div&gt;sales = quantity * price&lt;/div&gt;&lt;div&gt;&lt;br&gt;&lt;/div&gt;" style="text;html=1;whiteSpace=wrap;overflow=hidden;rounded=0;strokeColor=default;" vertex="1" parent="1">
          <mxGeometry x="375" y="440" width="130" height="80" as="geometry" />
        </mxCell>
      </root>
    </mxGraphModel>
  </diagram>
</mxfile>
